<mxfile host="65bd71144e">
    <diagram id="a_T-5h9Q82RHRgM_TcTy" name="Page-1">
        <mxGraphModel dx="1386" dy="787" grid="1" gridSize="10" guides="1" tooltips="1" connect="1" arrows="1" fold="1" page="1" pageScale="1" pageWidth="1200" pageHeight="1600" math="0" shadow="0">
            <root>
                <mxCell id="0"/>
                <mxCell id="1" parent="0"/>
                <mxCell id="91" value="&lt;h2&gt;HPC&lt;/h2&gt;" style="rounded=0;whiteSpace=wrap;html=1;strokeWidth=2;fontFamily=Times New Roman;fontSize=16;labelPosition=center;verticalLabelPosition=top;align=center;verticalAlign=bottom;textDirection=ltr;spacing=-50;fillColor=#f5f5f5;gradientColor=#b3b3b3;strokeColor=#666666;" vertex="1" parent="1">
                    <mxGeometry x="232" y="160" width="680" height="300" as="geometry"/>
                </mxCell>
                <mxCell id="34" value="&lt;h2&gt;Configuration file&lt;/h2&gt;" style="rounded=0;whiteSpace=wrap;html=1;strokeWidth=2;fontFamily=Times New Roman;fontSize=16;labelPosition=center;verticalLabelPosition=top;align=center;verticalAlign=bottom;textDirection=ltr;spacing=-50;fillColor=#f5f5f5;gradientColor=#b3b3b3;strokeColor=#666666;" vertex="1" parent="1">
                    <mxGeometry x="42" y="160" width="190" height="300" as="geometry"/>
                </mxCell>
                <mxCell id="40" style="edgeStyle=orthogonalEdgeStyle;html=1;exitX=1;exitY=0.5;exitDx=0;exitDy=0;entryX=0.5;entryY=0;entryDx=0;entryDy=0;fontFamily=Times New Roman;fontSize=16;strokeWidth=3;" edge="1" parent="1" source="30" target="38">
                    <mxGeometry relative="1" as="geometry"/>
                </mxCell>
                <mxCell id="30" value="Weather data" style="rounded=1;whiteSpace=wrap;html=1;strokeWidth=2;fontSize=16;fontFamily=Times New Roman;fontStyle=1" vertex="1" parent="1">
                    <mxGeometry x="77" y="220" width="120" height="60" as="geometry"/>
                </mxCell>
                <mxCell id="37" value="" style="edgeStyle=none;html=1;fontFamily=Times New Roman;fontSize=16;strokeWidth=3;" edge="1" parent="1" source="32" target="36">
                    <mxGeometry relative="1" as="geometry"/>
                </mxCell>
                <mxCell id="32" value="Parameter names and ranges" style="rounded=1;whiteSpace=wrap;html=1;strokeWidth=2;fontSize=16;fontFamily=Times New Roman;fontStyle=1" vertex="1" parent="1">
                    <mxGeometry x="77" y="300" width="120" height="60" as="geometry"/>
                </mxCell>
                <mxCell id="41" style="edgeStyle=orthogonalEdgeStyle;html=1;exitX=1;exitY=0.5;exitDx=0;exitDy=0;entryX=0.5;entryY=1;entryDx=0;entryDy=0;fontFamily=Times New Roman;fontSize=16;strokeWidth=3;" edge="1" parent="1" source="33" target="38">
                    <mxGeometry relative="1" as="geometry"/>
                </mxCell>
                <mxCell id="33" value="Crop calender and management" style="rounded=1;whiteSpace=wrap;html=1;strokeWidth=2;fontSize=16;fontFamily=Times New Roman;fontStyle=1" vertex="1" parent="1">
                    <mxGeometry x="77" y="380" width="120" height="60" as="geometry"/>
                </mxCell>
                <mxCell id="39" value="" style="edgeStyle=none;html=1;fontFamily=Times New Roman;fontSize=16;strokeWidth=3;" edge="1" parent="1" source="36" target="38">
                    <mxGeometry relative="1" as="geometry"/>
                </mxCell>
                <mxCell id="36" value="Parameter sets" style="rounded=1;whiteSpace=wrap;html=1;strokeWidth=2;fontSize=16;fontFamily=Times New Roman;fontStyle=1" vertex="1" parent="1">
                    <mxGeometry x="253" y="300" width="120" height="60" as="geometry"/>
                </mxCell>
                <mxCell id="43" value="" style="edgeStyle=orthogonalEdgeStyle;html=1;fontFamily=Times New Roman;fontSize=16;entryX=0;entryY=0.5;entryDx=0;entryDy=0;strokeWidth=3;" edge="1" parent="1" source="38" target="42">
                    <mxGeometry relative="1" as="geometry"/>
                </mxCell>
                <mxCell id="48" style="edgeStyle=orthogonalEdgeStyle;html=1;exitX=1;exitY=0.5;exitDx=0;exitDy=0;entryX=0;entryY=0.5;entryDx=0;entryDy=0;strokeWidth=3;fontFamily=Times New Roman;fontSize=16;" edge="1" parent="1" source="38" target="44">
                    <mxGeometry relative="1" as="geometry"/>
                </mxCell>
                <mxCell id="49" style="edgeStyle=orthogonalEdgeStyle;html=1;exitX=1;exitY=0.5;exitDx=0;exitDy=0;entryX=0;entryY=0.5;entryDx=0;entryDy=0;strokeWidth=3;fontFamily=Times New Roman;fontSize=16;" edge="1" parent="1" source="38" target="47">
                    <mxGeometry relative="1" as="geometry"/>
                </mxCell>
                <mxCell id="38" value="Simulaiton 1, 2,..., n" style="rounded=1;whiteSpace=wrap;html=1;strokeWidth=2;fontSize=16;fontFamily=Times New Roman;fontStyle=1" vertex="1" parent="1">
                    <mxGeometry x="422" y="300" width="120" height="60" as="geometry"/>
                </mxCell>
                <mxCell id="74" style="edgeStyle=orthogonalEdgeStyle;html=1;exitX=1;exitY=0.5;exitDx=0;exitDy=0;strokeWidth=3;fontFamily=Times New Roman;fontSize=16;" edge="1" parent="1" source="42" target="61">
                    <mxGeometry relative="1" as="geometry">
                        <Array as="points">
                            <mxPoint x="670" y="220"/>
                            <mxPoint x="670" y="319"/>
                        </Array>
                    </mxGeometry>
                </mxCell>
                <mxCell id="42" value="CPU 1" style="rounded=1;whiteSpace=wrap;html=1;strokeWidth=2;fontSize=16;fontFamily=Times New Roman;fontStyle=1" vertex="1" parent="1">
                    <mxGeometry x="581" y="190" width="69" height="60" as="geometry"/>
                </mxCell>
                <mxCell id="75" style="edgeStyle=orthogonalEdgeStyle;html=1;exitX=1;exitY=0.5;exitDx=0;exitDy=0;strokeWidth=3;fontFamily=Times New Roman;fontSize=16;" edge="1" parent="1" source="44">
                    <mxGeometry relative="1" as="geometry">
                        <mxPoint x="690" y="320" as="targetPoint"/>
                    </mxGeometry>
                </mxCell>
                <mxCell id="44" value="CPU 2" style="rounded=1;whiteSpace=wrap;html=1;strokeWidth=2;fontSize=16;fontFamily=Times New Roman;fontStyle=1" vertex="1" parent="1">
                    <mxGeometry x="581" y="260" width="69" height="60" as="geometry"/>
                </mxCell>
                <mxCell id="46" value="" style="endArrow=none;dashed=1;html=1;dashPattern=1 3;strokeWidth=5;fontFamily=Times New Roman;fontSize=16;spacing=3;" edge="1" parent="1">
                    <mxGeometry width="50" height="50" relative="1" as="geometry">
                        <mxPoint x="615" y="380" as="sourcePoint"/>
                        <mxPoint x="615" y="330" as="targetPoint"/>
                    </mxGeometry>
                </mxCell>
                <mxCell id="76" style="edgeStyle=orthogonalEdgeStyle;html=1;exitX=1;exitY=0.5;exitDx=0;exitDy=0;strokeWidth=3;fontFamily=Times New Roman;fontSize=16;" edge="1" parent="1" source="47" target="61">
                    <mxGeometry relative="1" as="geometry">
                        <Array as="points">
                            <mxPoint x="670" y="420"/>
                            <mxPoint x="670" y="319"/>
                        </Array>
                    </mxGeometry>
                </mxCell>
                <mxCell id="47" value="CPU 64" style="rounded=1;whiteSpace=wrap;html=1;strokeWidth=2;fontSize=16;fontFamily=Times New Roman;fontStyle=1" vertex="1" parent="1">
                    <mxGeometry x="581" y="390" width="69" height="60" as="geometry"/>
                </mxCell>
                <mxCell id="72" value="" style="group" vertex="1" connectable="0" parent="1">
                    <mxGeometry x="690" y="245.2" width="70" height="154.8" as="geometry"/>
                </mxCell>
                <mxCell id="57" value="" style="dashed=0;outlineConnect=0;html=1;align=center;labelPosition=center;verticalLabelPosition=bottom;verticalAlign=top;shape=mxgraph.weblogos.json;strokeWidth=2;fontFamily=Times New Roman;fontSize=16;" vertex="1" parent="72">
                    <mxGeometry width="70" height="75.8" as="geometry"/>
                </mxCell>
                <mxCell id="58" value="" style="dashed=0;outlineConnect=0;html=1;align=center;labelPosition=center;verticalLabelPosition=bottom;verticalAlign=top;shape=mxgraph.weblogos.json;strokeWidth=2;fontFamily=Times New Roman;fontSize=16;" vertex="1" parent="72">
                    <mxGeometry y="20" width="70" height="75.8" as="geometry"/>
                </mxCell>
                <mxCell id="61" value="" style="dashed=0;outlineConnect=0;html=1;align=center;labelPosition=center;verticalLabelPosition=bottom;verticalAlign=top;shape=mxgraph.weblogos.json;strokeWidth=2;fontFamily=Times New Roman;fontSize=16;" vertex="1" parent="72">
                    <mxGeometry y="37.1" width="70" height="72.9" as="geometry"/>
                </mxCell>
                <mxCell id="62" value="" style="dashed=0;outlineConnect=0;html=1;align=center;labelPosition=center;verticalLabelPosition=bottom;verticalAlign=top;shape=mxgraph.weblogos.json;strokeWidth=2;fontFamily=Times New Roman;fontSize=16;" vertex="1" parent="72">
                    <mxGeometry y="57.10000000000002" width="70" height="75.8" as="geometry"/>
                </mxCell>
                <mxCell id="60" value="" style="dashed=0;outlineConnect=0;html=1;align=center;labelPosition=center;verticalLabelPosition=bottom;verticalAlign=top;shape=mxgraph.weblogos.json;strokeWidth=2;fontFamily=Times New Roman;fontSize=16;" vertex="1" parent="72">
                    <mxGeometry y="79" width="70" height="75.8" as="geometry"/>
                </mxCell>
                <mxCell id="88" style="edgeStyle=orthogonalEdgeStyle;html=1;exitX=1;exitY=0.5;exitDx=0;exitDy=0;entryX=0;entryY=0.5;entryDx=0;entryDy=0;strokeWidth=3;fontFamily=Times New Roman;fontSize=16;" edge="1" parent="1" source="79" target="87">
                    <mxGeometry relative="1" as="geometry"/>
                </mxCell>
                <mxCell id="79" value="DAY 1 Si" style="shape=document;whiteSpace=wrap;html=1;boundedLbl=1;shadow=0;sketch=0;fillStyle=solid;strokeColor=default;strokeWidth=2;fontFamily=Times New Roman;fontSize=16;fillColor=default;gradientColor=none;gradientDirection=north;rounded=1;fontStyle=1;" vertex="1" parent="1">
                    <mxGeometry x="800" y="190" width="80" height="80" as="geometry"/>
                </mxCell>
                <mxCell id="80" style="edgeStyle=orthogonalEdgeStyle;html=1;entryX=0;entryY=0.5;entryDx=0;entryDy=0;strokeWidth=3;fontFamily=Times New Roman;fontSize=16;" edge="1" parent="1" source="61" target="79">
                    <mxGeometry relative="1" as="geometry"/>
                </mxCell>
                <mxCell id="89" style="edgeStyle=orthogonalEdgeStyle;html=1;entryX=0;entryY=0.5;entryDx=0;entryDy=0;strokeWidth=3;fontFamily=Times New Roman;fontSize=16;" edge="1" parent="1" source="82" target="87">
                    <mxGeometry relative="1" as="geometry"/>
                </mxCell>
                <mxCell id="82" value="DAY 2&amp;nbsp;&lt;span style=&quot;color: rgba(0, 0, 0, 0); font-family: monospace; font-size: 0px; font-weight: 400; text-align: start;&quot;&gt;%3CmxGraphModel%3E%3Croot%3E%3CmxCell%20id%3D%220%22%2F%3E%3CmxCell%20id%3D%221%22%20parent%3D%220%22%2F%3E%3CmxCell%20id%3D%222%22%20value%3D%22DAY%201%22%20style%3D%22shape%3Ddocument%3BwhiteSpace%3Dwrap%3Bhtml%3D1%3BboundedLbl%3D1%3Bshadow%3D0%3Bsketch%3D0%3BfillStyle%3Dsolid%3BstrokeColor%3Ddefault%3BstrokeWidth%3D2%3BfontFamily%3DTimes%20New%20Roman%3BfontSize%3D16%3BfillColor%3Ddefault%3BgradientColor%3Dnone%3BgradientDirection%3Dnorth%3Brounded%3D1%3BfontStyle%3D1%3B%22%20vertex%3D%221%22%20parent%3D%221%22%3E%3CmxGeometry%20x%3D%22800%22%20y%3D%22190%22%20width%3D%22120%22%20height%3D%2280%22%20as%3D%22geometry%22%2F%3E%3C%2FmxCell%3E%3C%2Froot%3E%3C%2FmxGraphModel%3E&amp;nbsp;&lt;/span&gt;Si" style="shape=document;whiteSpace=wrap;html=1;boundedLbl=1;shadow=0;sketch=0;fillStyle=solid;strokeColor=default;strokeWidth=2;fontFamily=Times New Roman;fontSize=16;fillColor=default;gradientColor=none;gradientDirection=north;rounded=1;fontStyle=1;" vertex="1" parent="1">
                    <mxGeometry x="800" y="240" width="80" height="80" as="geometry"/>
                </mxCell>
                <mxCell id="90" style="edgeStyle=orthogonalEdgeStyle;html=1;entryX=0;entryY=0.5;entryDx=0;entryDy=0;strokeWidth=3;fontFamily=Times New Roman;fontSize=16;" edge="1" parent="1" source="83" target="87">
                    <mxGeometry relative="1" as="geometry"/>
                </mxCell>
                <mxCell id="83" value="DAY N Si&lt;span style=&quot;color: rgba(0, 0, 0, 0); font-family: monospace; font-size: 0px; font-weight: 400; text-align: start;&quot;&gt;%3CmxGraphModel%3E%3Croot%3E%3CmxCell%20id%3D%220%22%2F%3E%3CmxCell%20id%3D%221%22%20parent%3D%220%22%2F%3E%3CmxCell%20id%3D%222%22%20value%3D%22DAY%201%22%20style%3D%22shape%3Ddocument%3BwhiteSpace%3Dwrap%3Bhtml%3D1%3BboundedLbl%3D1%3Bshadow%3D0%3Bsketch%3D0%3BfillStyle%3Dsolid%3BstrokeColor%3Ddefault%3BstrokeWidth%3D2%3BfontFamily%3DTimes%20New%20Roman%3BfontSize%3D16%3BfillColor%3Ddefault%3BgradientColor%3Dnone%3BgradientDirection%3Dnorth%3Brounded%3D1%3BfontStyle%3D1%3B%22%20vertex%3D%221%22%20parent%3D%221%22%3E%3CmxGeometry%20x%3D%22800%22%20y%3D%22190%22%20width%3D%22120%22%20height%3D%2280%22%20as%3D%22geometry%22%2F%3E%3C%2FmxCell%3E%3C%2Froot%3E%3C%2FmxGraphModel%3&amp;nbsp;&lt;/span&gt;" style="shape=document;whiteSpace=wrap;html=1;boundedLbl=1;shadow=0;sketch=0;fillStyle=solid;strokeColor=default;strokeWidth=2;fontFamily=Times New Roman;fontSize=16;fillColor=default;gradientColor=none;gradientDirection=north;rounded=1;fontStyle=1;" vertex="1" parent="1">
                    <mxGeometry x="800" y="370" width="80" height="80" as="geometry"/>
                </mxCell>
                <mxCell id="84" value="" style="endArrow=none;dashed=1;html=1;dashPattern=1 3;strokeWidth=5;fontFamily=Times New Roman;fontSize=16;spacing=3;" edge="1" parent="1">
                    <mxGeometry width="50" height="50" relative="1" as="geometry">
                        <mxPoint x="841" y="370" as="sourcePoint"/>
                        <mxPoint x="841" y="320" as="targetPoint"/>
                    </mxGeometry>
                </mxCell>
                <mxCell id="85" style="edgeStyle=orthogonalEdgeStyle;html=1;strokeWidth=3;fontFamily=Times New Roman;fontSize=16;" edge="1" parent="1" source="61" target="82">
                    <mxGeometry relative="1" as="geometry"/>
                </mxCell>
                <mxCell id="86" style="edgeStyle=orthogonalEdgeStyle;html=1;entryX=0;entryY=0.5;entryDx=0;entryDy=0;strokeWidth=3;fontFamily=Times New Roman;fontSize=16;" edge="1" parent="1" source="61" target="83">
                    <mxGeometry relative="1" as="geometry"/>
                </mxCell>
                <mxCell id="87" value="Report" style="rounded=1;whiteSpace=wrap;html=1;strokeWidth=2;fontSize=16;fontFamily=Times New Roman;fontStyle=1" vertex="1" parent="1">
                    <mxGeometry x="920" y="292.6" width="120" height="60" as="geometry"/>
                </mxCell>
            </root>
        </mxGraphModel>
    </diagram>
</mxfile>